<svg id="SvgjsSvg1006" width="921" height="688" xmlns="http://www.w3.org/2000/svg" version="1.1" xmlns:xlink="http://www.w3.org/1999/xlink" xmlns:svgjs="http://svgjs.com/svgjs"><defs id="SvgjsDefs1007"><pattern patternUnits="userSpaceOnUse" id="pattern_mark_0" width="300" height="300"><text x="150" y="100" fill="rgba(229,229,229,0.8)" font-size="18" transform="rotate(-45, 150, 150)" style="dominant-baseline: middle; text-anchor: middle;"></text></pattern><pattern patternUnits="userSpaceOnUse" id="pattern_mark_1" width="300" height="300"><text x="150" y="200" fill="rgba(229,229,229,0.8)" font-size="18" transform="rotate(-45, 150, 150)" style="dominant-baseline: middle; text-anchor: middle;"></text></pattern><marker id="SvgjsMarker1151" markerWidth="13" markerHeight="9" refX="9.5" refY="4.5" viewBox="0 0 13 9" orient="auto" markerUnits="userSpaceOnUse" stroke-dasharray="0,0"><path id="SvgjsPath1152" d="M0,0 L13,4.5 L0,9 L0,0" fill="#323232" stroke="#323232" stroke-width="1"></path></marker><marker id="SvgjsMarker1155" markerWidth="13" markerHeight="9" refX="9.5" refY="4.5" viewBox="0 0 13 9" orient="auto" markerUnits="userSpaceOnUse" stroke-dasharray="0,0"><path id="SvgjsPath1156" d="M0,0 L13,4.5 L0,9 L0,0" fill="#323232" stroke="#323232" stroke-width="1"></path></marker><marker id="SvgjsMarker1159" markerWidth="13" markerHeight="9" refX="9.5" refY="4.5" viewBox="0 0 13 9" orient="auto" markerUnits="userSpaceOnUse" stroke-dasharray="0,0"><path id="SvgjsPath1160" d="M0,0 L13,4.5 L0,9 L0,0" fill="#323232" stroke="#323232" stroke-width="1"></path></marker><marker id="SvgjsMarker1163" markerWidth="13" markerHeight="9" refX="9.5" refY="4.5" viewBox="0 0 13 9" orient="auto" markerUnits="userSpaceOnUse" stroke-dasharray="0,0"><path id="SvgjsPath1164" d="M0,0 L13,4.5 L0,9 L0,0" fill="#323232" stroke="#323232" stroke-width="1"></path></marker><marker id="SvgjsMarker1167" markerWidth="13" markerHeight="9" refX="9.5" refY="4.5" viewBox="0 0 13 9" orient="auto" markerUnits="userSpaceOnUse" stroke-dasharray="0,0"><path id="SvgjsPath1168" d="M0,0 L13,4.5 L0,9 L0,0" fill="#323232" stroke="#323232" stroke-width="1"></path></marker><marker id="SvgjsMarker1171" markerWidth="13" markerHeight="9" refX="9.5" refY="4.5" viewBox="0 0 13 9" orient="auto" markerUnits="userSpaceOnUse" stroke-dasharray="0,0"><path id="SvgjsPath1172" d="M0,0 L13,4.5 L0,9 L0,0" fill="#323232" stroke="#323232" stroke-width="1"></path></marker><marker id="SvgjsMarker1175" markerWidth="13" markerHeight="9" refX="9.5" refY="4.5" viewBox="0 0 13 9" orient="auto" markerUnits="userSpaceOnUse" stroke-dasharray="0,0"><path id="SvgjsPath1176" d="M0,0 L13,4.5 L0,9 L0,0" fill="#323232" stroke="#323232" stroke-width="1"></path></marker><marker id="SvgjsMarker1179" markerWidth="13" markerHeight="9" refX="9.5" refY="4.5" viewBox="0 0 13 9" orient="auto" markerUnits="userSpaceOnUse" stroke-dasharray="0,0"><path id="SvgjsPath1180" d="M0,0 L13,4.5 L0,9 L0,0" fill="#323232" stroke="#323232" stroke-width="1"></path></marker><marker id="SvgjsMarker1231" markerWidth="13" markerHeight="9" refX="9.5" refY="4.5" viewBox="0 0 13 9" orient="auto" markerUnits="userSpaceOnUse" stroke-dasharray="0,0"><path id="SvgjsPath1232" d="M0,0 L13,4.5 L0,9 L0,0" fill="#323232" stroke="#323232" stroke-width="1"></path></marker><marker id="SvgjsMarker1273" markerWidth="13" markerHeight="9" refX="9.5" refY="4.5" viewBox="0 0 13 9" orient="auto" markerUnits="userSpaceOnUse" stroke-dasharray="0,0"><path id="SvgjsPath1274" d="M0,0 L13,4.5 L0,9 L0,0" fill="#323232" stroke="#323232" stroke-width="1"></path></marker><marker id="SvgjsMarker1277" markerWidth="13" markerHeight="9" refX="9.5" refY="4.5" viewBox="0 0 13 9" orient="auto" markerUnits="userSpaceOnUse" stroke-dasharray="0,0"><path id="SvgjsPath1278" d="M0,0 L13,4.5 L0,9 L0,0" fill="#323232" stroke="#323232" stroke-width="1"></path></marker><marker id="SvgjsMarker1281" markerWidth="13" markerHeight="9" refX="9.5" refY="4.5" viewBox="0 0 13 9" orient="auto" markerUnits="userSpaceOnUse" stroke-dasharray="0,0"><path id="SvgjsPath1282" d="M0,0 L13,4.5 L0,9 L0,0" fill="#323232" stroke="#323232" stroke-width="1"></path></marker><marker id="SvgjsMarker1285" markerWidth="13" markerHeight="9" refX="9.5" refY="4.5" viewBox="0 0 13 9" orient="auto" markerUnits="userSpaceOnUse" stroke-dasharray="0,0"><path id="SvgjsPath1286" d="M0,0 L13,4.5 L0,9 L0,0" fill="#323232" stroke="#323232" stroke-width="1"></path></marker><marker id="SvgjsMarker1329" markerWidth="13" markerHeight="9" refX="9.5" refY="4.5" viewBox="0 0 13 9" orient="auto" markerUnits="userSpaceOnUse" stroke-dasharray="0,0"><path id="SvgjsPath1330" d="M0,0 L13,4.5 L0,9 L0,0" fill="#323232" stroke="#323232" stroke-width="1"></path></marker><marker id="SvgjsMarker1333" markerWidth="13" markerHeight="9" refX="9.5" refY="4.5" viewBox="0 0 13 9" orient="auto" markerUnits="userSpaceOnUse" stroke-dasharray="0,0"><path id="SvgjsPath1334" d="M0,0 L13,4.5 L0,9 L0,0" fill="#323232" stroke="#323232" stroke-width="1"></path></marker></defs><rect id="svgbackgroundid" width="921" height="688" fill="transparent"></rect><rect id="SvgjsRect1009" width="921" height="688" fill="url(#pattern_mark_0)"></rect><rect id="SvgjsRect1010" width="921" height="688" fill="url(#pattern_mark_1)"></rect><g id="SvgjsG1011" transform="translate(237,114)"><path id="SvgjsPath1012" d="M 0 4Q 0 0 4 0L 270 0Q 274 0 274 4L 274 196Q 274 200 270 200L 4 200Q 0 200 0 196Z" stroke="rgba(33,41,48,1)" stroke-width="1.5" fill-opacity="1" fill="#ffffff"></path><path id="SvgjsPath1013" d="M 0 30L 274 30" stroke="rgba(33,41,48,1)" stroke-width="1.5" fill="none"></path><path id="SvgjsPath1014" d="M 0 0L 274 0L 274 200L 0 200Z" stroke="none" fill="none"></path><g id="SvgjsG1015"><text id="SvgjsText1016" font-family="微软雅黑" text-anchor="middle" font-size="13px" width="254px" fill="#323232" font-weight="700" align="middle" lineHeight="125%" anchor="middle" family="微软雅黑" size="13px" weight="700" font-style="" opacity="1" y="4.375" transform="rotate(0)"><tspan id="SvgjsTspan1017" dy="16.25" x="137"><tspan id="SvgjsTspan1018" style="">Scene</tspan></tspan></text></g><g id="SvgjsG1019"><text id="SvgjsText1020" font-family="微软雅黑" text-anchor="start" font-size="13px" width="254px" fill="#323232" font-weight="400" align="middle" lineHeight="125%" anchor="start" family="微软雅黑" size="13px" weight="400" font-style="" opacity="1" y="39.375" transform="rotate(0)"><tspan id="SvgjsTspan1021" dy="16.25" x="10"><tspan id="SvgjsTspan1022" style="">- Triangle*[] shapes;</tspan></tspan><tspan id="SvgjsTspan1023" dy="16.25" x="10"><tspan id="SvgjsTspan1024" style="">- TriangleMesh*[] meshes;</tspan></tspan><tspan id="SvgjsTspan1025" dy="16.25" x="10"><tspan id="SvgjsTspan1026" style="">- Material*[] materials;</tspan></tspan><tspan id="SvgjsTspan1027" dy="16.25" x="10"><tspan id="SvgjsTspan1028" style="">- AreaLight*[] lights;</tspan></tspan><tspan id="SvgjsTspan1029" dy="16.25" x="10"><tspan id="SvgjsTspan1030" style=""> </tspan></tspan><tspan id="SvgjsTspan1031" dy="16.25" x="10"><tspan id="SvgjsTspan1032" style="">- Camera* camera;</tspan></tspan><tspan id="SvgjsTspan1033" dy="16.25" x="10"><tspan id="SvgjsTspan1034" style="">- Accel* accel;</tspan></tspan><tspan id="SvgjsTspan1035" dy="16.25" x="10"><tspan id="SvgjsTspan1036" style="">- Filter* filter;</tspan></tspan><tspan id="SvgjsTspan1037" dy="16.25" x="10"><tspan id="SvgjsTspan1038" style="">- UniformLightSelector* light_selector;</tspan></tspan></text></g></g><g id="SvgjsG1039" transform="translate(674,77)"><path id="SvgjsPath1040" d="M 0 4Q 0 0 4 0L 174 0Q 178 0 178 4L 178 154Q 178 158 174 158L 4 158Q 0 158 0 154Z" stroke="rgba(33,41,48,1)" stroke-width="1.5" fill-opacity="1" fill="#ffffff"></path><path id="SvgjsPath1041" d="M 0 30L 178 30" stroke="rgba(33,41,48,1)" stroke-width="1.5" fill="none"></path><path id="SvgjsPath1042" d="M 0 0L 178 0L 178 158L 0 158Z" stroke="none" fill="none"></path><g id="SvgjsG1043"><text id="SvgjsText1044" font-family="微软雅黑" text-anchor="middle" font-size="13px" width="158px" fill="#323232" font-weight="700" align="middle" lineHeight="125%" anchor="middle" family="微软雅黑" size="13px" weight="700" font-style="" opacity="1" y="4.375" transform="rotate(0)"><tspan id="SvgjsTspan1045" dy="16.25" x="89"><tspan id="SvgjsTspan1046" style="">TriangleMesh</tspan></tspan></text></g><g id="SvgjsG1047"><text id="SvgjsText1048" font-family="微软雅黑" text-anchor="start" font-size="13px" width="158px" fill="#323232" font-weight="400" align="middle" lineHeight="125%" anchor="start" family="微软雅黑" size="13px" weight="400" font-style="" opacity="1" y="34.375" transform="rotate(0)"><tspan id="SvgjsTspan1049" dy="16.25" x="10"><tspan id="SvgjsTspan1050" style="">- Vector3f[] vertices;</tspan></tspan><tspan id="SvgjsTspan1051" dy="16.25" x="10"><tspan id="SvgjsTspan1052" style="">- Vector3f[] normals;</tspan></tspan><tspan id="SvgjsTspan1053" dy="16.25" x="10"><tspan id="SvgjsTspan1054" style="">- Vector2f[] uvs;</tspan></tspan><tspan id="SvgjsTspan1055" dy="16.25" x="10"><tspan id="SvgjsTspan1056" style="">- uint32_t[] vertrex_ids;</tspan></tspan><tspan id="SvgjsTspan1057" dy="16.25" x="10"><tspan id="SvgjsTspan1058" style="">- uint32_t[] normal_ids;</tspan></tspan><tspan id="SvgjsTspan1059" dy="16.25" x="10"><tspan id="SvgjsTspan1060" style="">- uint32_t[] uv_ids;</tspan></tspan><tspan id="SvgjsTspan1061" dy="16.25" x="10"><tspan id="SvgjsTspan1062" style="">- uint32_t[] material_ids;</tspan></tspan></text></g></g><g id="SvgjsG1063" transform="translate(732,373)"><path id="SvgjsPath1064" d="M 0 4Q 0 0 4 0L 160 0Q 164 0 164 4L 164 106Q 164 110 160 110L 4 110Q 0 110 0 106Z" stroke="rgba(33,41,48,1)" stroke-width="1.5" fill-opacity="1" fill="#ffffff"></path><path id="SvgjsPath1065" d="M 0 30L 164 30" stroke="rgba(33,41,48,1)" stroke-width="1.5" fill="none"></path><path id="SvgjsPath1066" d="M 0 0L 164 0L 164 110L 0 110Z" stroke="none" fill="none"></path><g id="SvgjsG1067"><text id="SvgjsText1068" font-family="微软雅黑" text-anchor="middle" font-size="13px" width="144px" fill="#323232" font-weight="700" align="middle" lineHeight="125%" anchor="middle" family="微软雅黑" size="13px" weight="700" font-style="" opacity="1" y="4.375" transform="rotate(0)"><tspan id="SvgjsTspan1069" dy="16.25" x="82"><tspan id="SvgjsTspan1070" style="">Triangle</tspan></tspan></text></g><g id="SvgjsG1071"><text id="SvgjsText1072" font-family="微软雅黑" text-anchor="start" font-size="13px" width="144px" fill="#323232" font-weight="400" align="middle" lineHeight="125%" anchor="start" family="微软雅黑" size="13px" weight="400" font-style="" opacity="1" y="34.875" transform="rotate(0)"><tspan id="SvgjsTspan1073" dy="16.25" x="10"><tspan id="SvgjsTspan1074" style="">- uint32_t triangle_id;</tspan></tspan><tspan id="SvgjsTspan1075" dy="16.25" x="10"><tspan id="SvgjsTspan1076" style="">- TriangleMesh* mesh;</tspan></tspan><tspan id="SvgjsTspan1077" dy="16.25" x="10"><tspan id="SvgjsTspan1078" style="">- Material* material;</tspan></tspan><tspan id="SvgjsTspan1079" dy="16.25" x="10"><tspan id="SvgjsTspan1080" style="">- AreaLight* light;</tspan></tspan></text></g></g><g id="SvgjsG1081" transform="translate(499.5,499.5)"><path id="SvgjsPath1082" d="M 0 4Q 0 0 4 0L 165 0Q 169 0 169 4L 169 154Q 169 158 165 158L 4 158Q 0 158 0 154Z" stroke="rgba(33,41,48,1)" stroke-width="1.5" fill-opacity="1" fill="#ffffff"></path><path id="SvgjsPath1083" d="M 0 30L 169 30" stroke="rgba(33,41,48,1)" stroke-width="1.5" fill="none"></path><path id="SvgjsPath1084" d="M 0 0L 169 0L 169 158L 0 158Z" stroke="none" fill="none"></path><g id="SvgjsG1085"><text id="SvgjsText1086" font-family="微软雅黑" text-anchor="middle" font-size="13px" width="149px" fill="#323232" font-weight="700" align="middle" lineHeight="125%" anchor="middle" family="微软雅黑" size="13px" weight="700" font-style="" opacity="1" y="4.375" transform="rotate(0)"><tspan id="SvgjsTspan1087" dy="16.25" x="84.5"><tspan id="SvgjsTspan1088" style="">Intersection</tspan></tspan></text></g><g id="SvgjsG1089"><text id="SvgjsText1090" font-family="微软雅黑" text-anchor="start" font-size="13px" width="149px" fill="#323232" font-weight="400" align="middle" lineHeight="125%" anchor="start" family="微软雅黑" size="13px" weight="400" font-style="" opacity="1" y="34.375" transform="rotate(0)"><tspan id="SvgjsTspan1091" dy="16.25" x="10"><tspan id="SvgjsTspan1092" style="">+ Vector3f p;</tspan></tspan><tspan id="SvgjsTspan1093" dy="16.25" x="10"><tspan id="SvgjsTspan1094" style="">+ Vector3f n;</tspan></tspan><tspan id="SvgjsTspan1095" dy="16.25" x="10"><tspan id="SvgjsTspan1096" style="">+ Vector3f ng;</tspan></tspan><tspan id="SvgjsTspan1097" dy="16.25" x="10"><tspan id="SvgjsTspan1098" style="">+ Vector2f uv;</tspan></tspan><tspan id="SvgjsTspan1099" dy="16.25" x="10"><tspan id="SvgjsTspan1100" style="">+ TangentSpace ts;</tspan></tspan><tspan id="SvgjsTspan1101" dy="16.25" x="10"><tspan id="SvgjsTspan1102" style="">- Triangle* shape;</tspan></tspan><tspan id="SvgjsTspan1103" dy="16.25" x="10"><tspan id="SvgjsTspan1104" style="">- Vector3f bary_coord</tspan></tspan></text></g></g><g id="SvgjsG1105" transform="translate(286,419.5)"><path id="SvgjsPath1106" d="M 0 4Q 0 0 4 0L 135 0Q 139 0 139 4L 139 76Q 139 80 135 80L 4 80Q 0 80 0 76Z" stroke="rgba(33,41,48,1)" stroke-width="1.5" fill-opacity="1" fill="#ffffff"></path><path id="SvgjsPath1107" d="M 0 30L 139 30" stroke="rgba(33,41,48,1)" stroke-width="1.5" fill="none"></path><path id="SvgjsPath1108" d="M 0 0L 139 0L 139 80L 0 80Z" stroke="none" fill="none"></path><g id="SvgjsG1109"><text id="SvgjsText1110" font-family="微软雅黑" text-anchor="middle" font-size="13px" width="119px" fill="#323232" font-weight="700" align="middle" lineHeight="125%" anchor="middle" family="微软雅黑" size="13px" weight="700" font-style="" opacity="1" y="4.375" transform="rotate(0)"><tspan id="SvgjsTspan1111" dy="16.25" x="69.5"><tspan id="SvgjsTspan1112" style="">AreaLight</tspan></tspan></text></g><g id="SvgjsG1113"><text id="SvgjsText1114" font-family="微软雅黑" text-anchor="start" font-size="13px" width="119px" fill="#323232" font-weight="400" align="middle" lineHeight="125%" anchor="start" family="微软雅黑" size="13px" weight="400" font-style="" opacity="1" y="35.875" transform="rotate(0)"><tspan id="SvgjsTspan1115" dy="16.25" x="10"><tspan id="SvgjsTspan1116" style="">- Triangle* shape</tspan></tspan><tspan id="SvgjsTspan1117" dy="16.25" x="10"><tspan id="SvgjsTspan1118" style="">- Vector3f lemit</tspan></tspan></text></g></g><g id="SvgjsG1119" transform="translate(96,419.5)"><path id="SvgjsPath1120" d="M 0 4Q 0 0 4 0L 169 0Q 173 0 173 4L 173 76Q 173 80 169 80L 4 80Q 0 80 0 76Z" stroke="rgba(33,41,48,1)" stroke-width="1.5" fill-opacity="1" fill="#ffffff"></path><path id="SvgjsPath1121" d="M 0 30L 173 30" stroke="rgba(33,41,48,1)" stroke-width="1.5" fill="none"></path><path id="SvgjsPath1122" d="M 0 0L 173 0L 173 80L 0 80Z" stroke="none" fill="none"></path><g id="SvgjsG1123"><text id="SvgjsText1124" font-family="微软雅黑" text-anchor="middle" font-size="13px" width="153px" fill="#323232" font-weight="700" align="middle" lineHeight="125%" anchor="middle" family="微软雅黑" size="13px" weight="700" font-style="" opacity="1" y="4.375" transform="rotate(0)"><tspan id="SvgjsTspan1125" dy="16.25" x="86.5"><tspan id="SvgjsTspan1126" style="">UniformLightSelector</tspan></tspan></text></g><g id="SvgjsG1127"><text id="SvgjsText1128" font-family="微软雅黑" text-anchor="start" font-size="13px" width="153px" fill="#323232" font-weight="400" align="middle" lineHeight="125%" anchor="start" family="微软雅黑" size="13px" weight="400" font-style="" opacity="1" y="44.375" transform="rotate(0)"><tspan id="SvgjsTspan1129" dy="16.25" x="10"><tspan id="SvgjsTspan1130" style="">- AreaLight*[] lights;</tspan></tspan></text></g></g><g id="SvgjsG1131" transform="translate(469,341.5)"><path id="SvgjsPath1132" d="M 0 4Q 0 0 4 0L 226 0Q 230 0 230 4L 230 103Q 230 107 226 107L 4 107Q 0 107 0 103Z" stroke="rgba(33,41,48,1)" stroke-width="1.5" fill-opacity="1" fill="#ffffff"></path><path id="SvgjsPath1133" d="M 0 30L 230 30" stroke="rgba(33,41,48,1)" stroke-width="1.5" fill="none"></path><path id="SvgjsPath1134" d="M 0 0L 230 0L 230 107L 0 107Z" stroke="none" fill="none"></path><g id="SvgjsG1135"><text id="SvgjsText1136" font-family="微软雅黑" text-anchor="middle" font-size="13px" width="210px" fill="#323232" font-weight="700" align="middle" lineHeight="125%" anchor="middle" family="微软雅黑" size="13px" weight="700" font-style="" opacity="1" y="4.375" transform="rotate(0)"><tspan id="SvgjsTspan1137" dy="16.25" x="115"><tspan id="SvgjsTspan1138" style="">Material</tspan></tspan></text></g><g id="SvgjsG1139"><text id="SvgjsText1140" font-family="微软雅黑" text-anchor="start" font-size="13px" width="210px" fill="#323232" font-weight="400" align="middle" lineHeight="125%" anchor="start" family="微软雅黑" size="13px" weight="400" font-style="" opacity="1" y="33.375" transform="rotate(0)"><tspan id="SvgjsTspan1141" dy="16.25" x="10"><tspan id="SvgjsTspan1142" style="">- Vector3f diffuse;</tspan></tspan><tspan id="SvgjsTspan1143" dy="16.25" x="10"><tspan id="SvgjsTspan1144" style="">- Vector3f specular;</tspan></tspan><tspan id="SvgjsTspan1145" dy="16.25" x="10"><tspan id="SvgjsTspan1146" style="">- float shininess;</tspan></tspan><tspan id="SvgjsTspan1147" dy="16.25" x="10"><tspan id="SvgjsTspan1148" style="">- Bitmap* texture;</tspan></tspan></text></g></g><g id="SvgjsG1149"><path id="SvgjsPath1150" d="M425.75 475L578.817959636417 475L578.817959636417 475L729.9359192728339 475" stroke="#323232" stroke-width="1.5" fill="none" marker-end="url(#SvgjsMarker1151)"></path></g><g id="SvgjsG1153"><path id="SvgjsPath1154" d="M584 340.75L584 297L513.7 297" stroke="#323232" stroke-width="1.5" fill="none" marker-end="url(#SvgjsMarker1155)"></path></g><g id="SvgjsG1157"><path id="SvgjsPath1158" d="M757 372.25L757 266L513.7 266" stroke="#323232" stroke-width="1.5" fill="none" marker-end="url(#SvgjsMarker1159)"></path></g><g id="SvgjsG1161"><path id="SvgjsPath1162" d="M673.25 179L592.5 179L592.5 179L513.7 179" stroke="#323232" stroke-width="1.5" fill="none" marker-end="url(#SvgjsMarker1163)"></path></g><g id="SvgjsG1165"><path id="SvgjsPath1166" d="M699.75 395L715.5 395L715.5 395L729.3 395" stroke="#323232" stroke-width="1.5" fill="none" marker-end="url(#SvgjsMarker1167)"></path></g><g id="SvgjsG1169"><path id="SvgjsPath1170" d="M827 235.75L827 304L827 304L827 370.3" stroke="#323232" stroke-width="1.5" fill="none" marker-end="url(#SvgjsMarker1171)"></path></g><g id="SvgjsG1173"><path id="SvgjsPath1174" d="M355.5 418.75L355.5 366.75L355.5 366.75L355.5 316.7" stroke="#323232" stroke-width="1.5" fill="none" marker-end="url(#SvgjsMarker1175)"></path></g><g id="SvgjsG1177"><path id="SvgjsPath1178" d="M731.25 461L578.5 461L578.5 461L427.70000000000005 461" stroke="#323232" stroke-width="1.5" fill="none" marker-end="url(#SvgjsMarker1179)"></path></g><g id="SvgjsG1181" transform="translate(25,124)"><path id="SvgjsPath1182" d="M 0 4Q 0 0 4 0L 175 0Q 179 0 179 4L 179 154Q 179 158 175 158L 4 158Q 0 158 0 154Z" stroke="rgba(33,41,48,1)" stroke-width="1.5" fill-opacity="1" fill="#ffffff"></path><path id="SvgjsPath1183" d="M 0 30L 179 30" stroke="rgba(33,41,48,1)" stroke-width="1.5" fill="none"></path><path id="SvgjsPath1184" d="M 0 0L 179 0L 179 158L 0 158Z" stroke="none" fill="none"></path><g id="SvgjsG1185"><text id="SvgjsText1186" font-family="微软雅黑" text-anchor="middle" font-size="13px" width="159px" fill="#323232" font-weight="700" align="middle" lineHeight="125%" anchor="middle" family="微软雅黑" size="13px" weight="700" font-style="" opacity="1" y="4.375" transform="rotate(0)"><tspan id="SvgjsTspan1187" dy="16.25" x="89.5"><tspan id="SvgjsTspan1188" style="">Camera</tspan></tspan></text></g><g id="SvgjsG1189"><text id="SvgjsText1190" font-family="微软雅黑" text-anchor="start" font-size="13px" width="159px" fill="#323232" font-weight="400" align="middle" lineHeight="125%" anchor="start" family="微软雅黑" size="13px" weight="400" font-style="" opacity="1" y="34.375" transform="rotate(0)"><tspan id="SvgjsTspan1191" dy="16.25" x="10"><tspan id="SvgjsTspan1192" style="">- Vector3f eye;</tspan></tspan><tspan id="SvgjsTspan1193" dy="16.25" x="10"><tspan id="SvgjsTspan1194" style="">- Vector3f lookat;</tspan></tspan><tspan id="SvgjsTspan1195" dy="16.25" x="10"><tspan id="SvgjsTspan1196" style="">- Vector3f up;</tspan></tspan><tspan id="SvgjsTspan1197" dy="16.25" x="10"><tspan id="SvgjsTspan1198" style="">- Transform cam2sample;</tspan></tspan><tspan id="SvgjsTspan1199" dy="16.25" x="10"><tspan id="SvgjsTspan1200" style="">- Transform sample2cam;</tspan></tspan><tspan id="SvgjsTspan1201" dy="16.25" x="10"><tspan id="SvgjsTspan1202" style="">- Transform cam2world;</tspan></tspan><tspan id="SvgjsTspan1203" dy="16.25" x="10"><tspan id="SvgjsTspan1204" style="">- Transform world2cam;</tspan></tspan></text></g></g><g id="SvgjsG1205" transform="translate(39.5,25)"><path id="SvgjsPath1206" d="M 0 4Q 0 0 4 0L 146 0Q 150 0 150 4L 150 56Q 150 60 146 60L 4 60Q 0 60 0 56Z" stroke="rgba(33,41,48,1)" stroke-width="1.5" fill-opacity="1" fill="#ffffff"></path><path id="SvgjsPath1207" d="M 0 30L 150 30" stroke="rgba(33,41,48,1)" stroke-width="1.5" fill="none"></path><path id="SvgjsPath1208" d="M 0 0L 150 0L 150 60L 0 60Z" stroke="none" fill="none"></path><g id="SvgjsG1209"><text id="SvgjsText1210" font-family="微软雅黑" text-anchor="middle" font-size="13px" width="130px" fill="#323232" font-weight="700" align="middle" lineHeight="125%" anchor="middle" family="微软雅黑" size="13px" weight="700" font-style="" opacity="1" y="4.375" transform="rotate(0)"><tspan id="SvgjsTspan1211" dy="16.25" x="75"><tspan id="SvgjsTspan1212" style="">Accel</tspan></tspan></text></g><g id="SvgjsG1213"><text id="SvgjsText1214" font-family="微软雅黑" text-anchor="start" font-size="13px" width="130px" fill="#323232" font-weight="400" align="middle" lineHeight="125%" anchor="start" family="微软雅黑" size="13px" weight="400" font-style="" opacity="1" y="34.375" transform="rotate(0)"><tspan id="SvgjsTspan1215" dy="16.25" x="10"><tspan id="SvgjsTspan1216" style="">- Triangle*[] shapes</tspan></tspan></text></g></g><g id="SvgjsG1217" transform="translate(539.5,29)"><path id="SvgjsPath1218" d="M 0 4Q 0 0 4 0L 102 0Q 106 0 106 4L 106 76Q 106 80 102 80L 4 80Q 0 80 0 76Z" stroke="rgba(33,41,48,1)" stroke-width="1.5" fill-opacity="1" fill="#ffffff"></path><path id="SvgjsPath1219" d="M 0 30L 106 30" stroke="rgba(33,41,48,1)" stroke-width="1.5" fill="none"></path><path id="SvgjsPath1220" d="M 0 0L 106 0L 106 80L 0 80Z" stroke="none" fill="none"></path><g id="SvgjsG1221"><text id="SvgjsText1222" font-family="微软雅黑" text-anchor="middle" font-size="13px" width="86px" fill="#323232" font-weight="700" align="middle" lineHeight="125%" anchor="middle" family="微软雅黑" size="13px" weight="700" font-style="" opacity="1" y="4.375" transform="rotate(0)"><tspan id="SvgjsTspan1223" dy="16.25" x="53"><tspan id="SvgjsTspan1224" style="">Filter</tspan></tspan></text></g><g id="SvgjsG1225"><text id="SvgjsText1226" font-family="微软雅黑" text-anchor="start" font-size="13px" width="86px" fill="#323232" font-weight="400" align="middle" lineHeight="125%" anchor="start" family="微软雅黑" size="13px" weight="400" font-style="" opacity="1" y="44.375" transform="rotate(0)"><tspan id="SvgjsTspan1227" dy="16.25" x="10"><tspan id="SvgjsTspan1228" style="">- float radius;</tspan></tspan></text></g></g><g id="SvgjsG1229"><path id="SvgjsPath1230" d="M592.5 109.75L592.5 137L513.7 137" stroke="#323232" stroke-width="1.5" fill="none" marker-end="url(#SvgjsMarker1231)"></path></g><g id="SvgjsG1233" transform="translate(177.5,521.25)"><path id="SvgjsPath1234" d="M 0 4Q 0 0 4 0L 91.25 0Q 95.25 0 95.25 4L 95.25 56Q 95.25 60 91.25 60L 4 60Q 0 60 0 56Z" stroke="rgba(33,41,48,1)" stroke-width="1.5" fill-opacity="1" fill="#ffffff"></path><path id="SvgjsPath1235" d="M 0 30L 95.25 30" stroke="rgba(33,41,48,1)" stroke-width="1.5" fill="none"></path><path id="SvgjsPath1236" d="M 0 0L 95.25 0L 95.25 60L 0 60Z" stroke="none" fill="none"></path><g id="SvgjsG1237"><text id="SvgjsText1238" font-family="微软雅黑" text-anchor="middle" font-size="13px" width="76px" fill="#323232" font-weight="700" align="middle" lineHeight="125%" anchor="middle" family="微软雅黑" size="13px" weight="700" font-style="" opacity="1" y="4.375" transform="rotate(0)"><tspan id="SvgjsTspan1239" dy="16.25" x="48"><tspan id="SvgjsTspan1240" style="">Sampler</tspan></tspan></text></g><g id="SvgjsG1241"><text id="SvgjsText1242" font-family="微软雅黑" text-anchor="start" font-size="13px" width="76px" fill="#323232" font-weight="400" align="middle" lineHeight="125%" anchor="start" family="微软雅黑" size="13px" weight="400" font-style="" opacity="1" y="34.375" transform="rotate(0)"><tspan id="SvgjsTspan1243" dy="16.25" x="10"><tspan id="SvgjsTspan1244" style="">...</tspan></tspan></text></g></g><g id="SvgjsG1245" transform="translate(177.5,603)"><path id="SvgjsPath1246" d="M 0 4Q 0 0 4 0L 91.25 0Q 95.25 0 95.25 4L 95.25 56Q 95.25 60 91.25 60L 4 60Q 0 60 0 56Z" stroke="rgba(33,41,48,1)" stroke-width="1.5" fill-opacity="1" fill="#ffffff"></path><path id="SvgjsPath1247" d="M 0 30L 95.25 30" stroke="rgba(33,41,48,1)" stroke-width="1.5" fill="none"></path><path id="SvgjsPath1248" d="M 0 0L 95.25 0L 95.25 60L 0 60Z" stroke="none" fill="none"></path><g id="SvgjsG1249"><text id="SvgjsText1250" font-family="微软雅黑" text-anchor="middle" font-size="13px" width="76px" fill="#323232" font-weight="700" align="middle" lineHeight="125%" anchor="middle" family="微软雅黑" size="13px" weight="700" font-style="" opacity="1" y="4.375" transform="rotate(0)"><tspan id="SvgjsTspan1251" dy="16.25" x="48"><tspan id="SvgjsTspan1252" style="">Integrator</tspan></tspan></text></g><g id="SvgjsG1253"><text id="SvgjsText1254" font-family="微软雅黑" text-anchor="start" font-size="13px" width="76px" fill="#323232" font-weight="400" align="middle" lineHeight="125%" anchor="start" family="微软雅黑" size="13px" weight="400" font-style="" opacity="1" y="34.375" transform="rotate(0)"><tspan id="SvgjsTspan1255" dy="16.25" x="10"><tspan id="SvgjsTspan1256" style="">...</tspan></tspan></text></g></g><g id="SvgjsG1257" transform="translate(46,315.75)"><path id="SvgjsPath1258" d="M 0 4Q 0 0 4 0L 133 0Q 137 0 137 4L 137 76Q 137 80 133 80L 4 80Q 0 80 0 76Z" stroke="rgba(33,41,48,1)" stroke-width="1.5" fill-opacity="1" fill="#ffffff"></path><path id="SvgjsPath1259" d="M 0 30L 137 30" stroke="rgba(33,41,48,1)" stroke-width="1.5" fill="none"></path><path id="SvgjsPath1260" d="M 0 0L 137 0L 137 80L 0 80Z" stroke="none" fill="none"></path><g id="SvgjsG1261"><text id="SvgjsText1262" font-family="微软雅黑" text-anchor="middle" font-size="13px" width="117px" fill="#323232" font-weight="700" align="middle" lineHeight="125%" anchor="middle" family="微软雅黑" size="13px" weight="700" font-style="" opacity="1" y="4.375" transform="rotate(0)"><tspan id="SvgjsTspan1263" dy="16.25" x="68.5"><tspan id="SvgjsTspan1264" style="">Transform</tspan></tspan></text></g><g id="SvgjsG1265"><text id="SvgjsText1266" font-family="微软雅黑" text-anchor="start" font-size="13px" width="117px" fill="#323232" font-weight="400" align="middle" lineHeight="125%" anchor="start" family="微软雅黑" size="13px" weight="400" font-style="" opacity="1" y="35.875" transform="rotate(0)"><tspan id="SvgjsTspan1267" dy="16.25" x="10"><tspan id="SvgjsTspan1268" style="">- Matrix4f matrix;</tspan></tspan><tspan id="SvgjsTspan1269" dy="16.25" x="10"><tspan id="SvgjsTspan1270" style="">- Matrix4f inverse;</tspan></tspan></text></g></g><g id="SvgjsG1271"><path id="SvgjsPath1272" d="M219 419.25L219 367L275 367L275 316.7" stroke="#323232" stroke-width="1.5" fill="none" marker-end="url(#SvgjsMarker1273)"></path></g><g id="SvgjsG1275"><path id="SvgjsPath1276" d="M114.5 315L114.5 298.875L114.5 298.875L114.5 284.7" stroke="#323232" stroke-width="1.5" fill="none" marker-end="url(#SvgjsMarker1277)"></path></g><g id="SvgjsG1279"><path id="SvgjsPath1280" d="M190.25 55L268 55L268 111.30000000000001" stroke="#323232" stroke-width="1.5" fill="none" marker-end="url(#SvgjsMarker1281)"></path></g><g id="SvgjsG1283"><path id="SvgjsPath1284" d="M204.75 203L220.5 203L220.5 203L234.3 203" stroke="#323232" stroke-width="1.5" fill="none" marker-end="url(#SvgjsMarker1285)"></path></g><g id="SvgjsG1287" transform="translate(292.5,521.25)"><path id="SvgjsPath1288" d="M 0 4Q 0 0 4 0L 91.25 0Q 95.25 0 95.25 4L 95.25 56Q 95.25 60 91.25 60L 4 60Q 0 60 0 56Z" stroke="rgba(33,41,48,1)" stroke-width="1.5" fill-opacity="1" fill="#ffffff"></path><path id="SvgjsPath1289" d="M 0 30L 95.25 30" stroke="rgba(33,41,48,1)" stroke-width="1.5" fill="none"></path><path id="SvgjsPath1290" d="M 0 0L 95.25 0L 95.25 60L 0 60Z" stroke="none" fill="none"></path><g id="SvgjsG1291"><text id="SvgjsText1292" font-family="微软雅黑" text-anchor="middle" font-size="13px" width="76px" fill="#323232" font-weight="700" align="middle" lineHeight="125%" anchor="middle" family="微软雅黑" size="13px" weight="700" font-style="" opacity="1" y="4.375" transform="rotate(0)"><tspan id="SvgjsTspan1293" dy="16.25" x="48"><tspan id="SvgjsTspan1294" style="">Bitmap</tspan></tspan></text></g><g id="SvgjsG1295"><text id="SvgjsText1296" font-family="微软雅黑" text-anchor="start" font-size="13px" width="76px" fill="#323232" font-weight="400" align="middle" lineHeight="125%" anchor="start" family="微软雅黑" size="13px" weight="400" font-style="" opacity="1" y="34.375" transform="rotate(0)"><tspan id="SvgjsTspan1297" dy="16.25" x="10"><tspan id="SvgjsTspan1298" style="">...</tspan></tspan></text></g></g><g id="SvgjsG1299" transform="translate(292.5,601.5)"><path id="SvgjsPath1300" d="M 0 4Q 0 0 4 0L 105.5 0Q 109.5 0 109.5 4L 109.5 56Q 109.5 60 105.5 60L 4 60Q 0 60 0 56Z" stroke="rgba(33,41,48,1)" stroke-width="1.5" fill-opacity="1" fill="#ffffff"></path><path id="SvgjsPath1301" d="M 0 30L 109.5 30" stroke="rgba(33,41,48,1)" stroke-width="1.5" fill="none"></path><path id="SvgjsPath1302" d="M 0 0L 109.5 0L 109.5 60L 0 60Z" stroke="none" fill="none"></path><g id="SvgjsG1303"><text id="SvgjsText1304" font-family="微软雅黑" text-anchor="middle" font-size="13px" width="90px" fill="#323232" font-weight="700" align="middle" lineHeight="125%" anchor="middle" family="微软雅黑" size="13px" weight="700" font-style="" opacity="1" y="4.375" transform="rotate(0)"><tspan id="SvgjsTspan1305" dy="16.25" x="55"><tspan id="SvgjsTspan1306" style="">ImageBlock</tspan></tspan></text></g><g id="SvgjsG1307"><text id="SvgjsText1308" font-family="微软雅黑" text-anchor="start" font-size="13px" width="90px" fill="#323232" font-weight="400" align="middle" lineHeight="125%" anchor="start" family="微软雅黑" size="13px" weight="400" font-style="" opacity="1" y="34.375" transform="rotate(0)"><tspan id="SvgjsTspan1309" dy="16.25" x="10"><tspan id="SvgjsTspan1310" style="">...</tspan></tspan></text></g></g><g id="SvgjsG1311" transform="translate(740,557.5)"><path id="SvgjsPath1312" d="M 0 4Q 0 0 4 0L 113 0Q 117 0 117 4L 117 96Q 117 100 113 100L 4 100Q 0 100 0 96Z" stroke="rgba(33,41,48,1)" stroke-width="1.5" fill-opacity="1" fill="#ffffff"></path><path id="SvgjsPath1313" d="M 0 30L 117 30" stroke="rgba(33,41,48,1)" stroke-width="1.5" fill="none"></path><path id="SvgjsPath1314" d="M 0 0L 117 0L 117 100L 0 100Z" stroke="none" fill="none"></path><g id="SvgjsG1315"><text id="SvgjsText1316" font-family="微软雅黑" text-anchor="middle" font-size="13px" width="97px" fill="#323232" font-weight="700" align="middle" lineHeight="125%" anchor="middle" family="微软雅黑" size="13px" weight="700" font-style="" opacity="1" y="4.375" transform="rotate(0)"><tspan id="SvgjsTspan1317" dy="16.25" x="58.5"><tspan id="SvgjsTspan1318" style="">TangentSpace</tspan></tspan></text></g><g id="SvgjsG1319"><text id="SvgjsText1320" font-family="微软雅黑" text-anchor="start" font-size="13px" width="97px" fill="#323232" font-weight="400" align="middle" lineHeight="125%" anchor="start" family="微软雅黑" size="13px" weight="400" font-style="" opacity="1" y="37.875" transform="rotate(0)"><tspan id="SvgjsTspan1321" dy="16.25" x="10"><tspan id="SvgjsTspan1322" style="">- Vector3f t;</tspan></tspan><tspan id="SvgjsTspan1323" dy="16.25" x="10"><tspan id="SvgjsTspan1324" style="">- Vector3f b;</tspan></tspan><tspan id="SvgjsTspan1325" dy="16.25" x="10"><tspan id="SvgjsTspan1326" style="">- Vector3f n;</tspan></tspan></text></g></g><g id="SvgjsG1327"><path id="SvgjsPath1328" d="M668.75 523L814 523L814 485.70000000000005" stroke="#323232" stroke-width="1.5" fill="none" marker-end="url(#SvgjsMarker1329)"></path></g><g id="SvgjsG1331"><path id="SvgjsPath1332" d="M739.25 594L704 594L704 594L670.7 594" stroke="#323232" stroke-width="1.5" fill="none" marker-end="url(#SvgjsMarker1333)"></path></g></svg>